<svg version="1.2" xmlns="http://www.w3.org/2000/svg" viewBox="0 0 372 145" width="372" height="145">
	<style>
		.s0 { fill: #fefefe } 
		.s1 { fill: #ffffff } 
		.s2 { fill: #26ccc0 } 
	</style>
	<g id="Folder 1">
		<path id="&lt;Compound Path&gt;" class="s0" d="m91 128.3v-0.1c0-7.4 5.6-13.5 13.6-13.5 4 0 6.6 1 8.8 2.7 0.6 0.4 1.1 1.2 1.1 2.2 0 1.6-1.3 2.8-2.8 2.8-0.8 0-1.4-0.3-1.8-0.5-1.6-1.2-3.3-1.9-5.3-1.9-4.4 0-7.6 3.7-7.6 8.1v0.1c0 4.5 3.1 8.2 7.6 8.2 2.4 0 4-0.7 5.7-2 0.4-0.4 1-0.7 1.7-0.7 1.4 0 2.7 1.2 2.7 2.7 0 0.9-0.5 1.6-1 2.1-2.3 2-5.1 3.2-9.3 3.2-7.7 0-13.4-5.9-13.4-13.4z"/>
		<path id="&lt;Compound Path&gt;" fill-rule="evenodd" class="s0" d="m117.8 128.3v-0.1c0-7.4 5.9-13.5 13.9-13.5 8.1 0 13.9 6 13.9 13.4v0.1c0 7.5-5.9 13.5-13.9 13.5-8.1 0-13.9-6-13.9-13.4zm21.8 0v-0.1c0-4.5-3.3-8.2-7.9-8.2-4.7 0-7.9 3.7-7.9 8.1v0.1c0 4.5 3.3 8.2 7.9 8.2 4.7 0 7.9-3.6 7.9-8.1z"/>
		<path id="&lt;Compound Path&gt;" class="s0" d="m150.7 117.9c0-1.6 1.3-2.9 2.9-2.9h0.6c1.4 0 2.2 0.7 3 1.7l11.1 14.5v-13.4c0-1.6 1.2-2.9 2.8-2.9 1.6 0 2.8 1.3 2.8 2.9v20.8c0 1.6-1.2 2.8-2.8 2.8h-0.2c-1.4 0-2.2-0.6-3-1.6l-11.5-15.1v14c0 1.5-1.3 2.8-2.8 2.8-1.6 0-2.9-1.3-2.9-2.8z"/>
		<path id="&lt;Compound Path&gt;" class="s0" d="m179.7 138.5c-0.6-0.4-1.1-1.2-1.1-2.1 0-1.5 1.2-2.7 2.7-2.7 0.8 0 1.3 0.3 1.7 0.5 1.9 1.5 4.1 2.4 6.6 2.4 2.4 0 3.8-0.9 3.8-2.5v-0.1c0-1.4-0.9-2.2-5.3-3.3-5.2-1.3-8.6-2.8-8.6-8 0-4.8 3.8-7.9 9.1-7.9 3.2 0 6 0.8 8.3 2.3 0.7 0.4 1.3 1.1 1.3 2.3 0 1.5-1.2 2.6-2.7 2.6-0.6 0-1-0.1-1.5-0.4-1.9-1.1-3.7-1.7-5.4-1.7-2.3 0-3.4 1-3.4 2.2v0.1c0 1.7 1.1 2.3 5.6 3.4 5.3 1.4 8.3 3.3 8.3 7.9v0.1c0 5.2-3.9 8.1-9.6 8.1-3.4 0-6.9-1.1-9.8-3.2z"/>
		<path id="&lt;Compound Path&gt;" class="s0" d="m203.7 130.1v-12.3c0-1.6 1.3-2.9 2.9-2.9 1.6 0 2.9 1.3 2.9 2.9v12.1c0 4.3 2.1 6.5 5.6 6.5 3.5 0 5.6-2.1 5.6-6.3v-12.3c0-1.6 1.3-2.9 2.9-2.9 1.6 0 2.9 1.3 2.9 2.9v12.1c0 7.9-4.4 11.8-11.5 11.8-7 0-11.3-3.9-11.3-11.6z"/>
		<path id="&lt;Compound Path&gt;" class="s0" d="m232.4 117.8c0-1.6 1.2-2.9 2.8-2.9 1.6 0 2.9 1.3 2.9 2.9v18.3h10.7c1.4 0 2.6 1.1 2.6 2.6 0 1.4-1.2 2.6-2.6 2.6h-13.6c-1.6 0-2.8-1.3-2.8-2.9z"/>
		<path id="&lt;Compound Path&gt;" class="s0" d="m257.8 120.5h-5.5c-1.5 0-2.6-1.2-2.6-2.7 0-1.5 1.1-2.7 2.6-2.7h16.8c1.5 0 2.7 1.2 2.7 2.7 0 1.5-1.2 2.7-2.7 2.7h-5.5v18.1c0 1.6-1.3 2.9-2.9 2.9-1.6 0-2.9-1.3-2.9-2.9z"/>
		<path id="&lt;Compound Path&gt;" class="s0" d="m276.2 117.8c0-1.6 1.3-2.9 2.9-2.9 1.6 0 2.9 1.3 2.9 2.9v20.8c0 1.6-1.3 2.9-2.9 2.9-1.6 0-2.9-1.3-2.9-2.9z"/>
		<path id="&lt;Compound Path&gt;" class="s0" d="m288.5 117.9c0-1.6 1.3-2.9 2.9-2.9h0.6c1.4 0 2.2 0.7 3 1.7l11 14.5v-13.4c0-1.6 1.3-2.9 2.9-2.9 1.6 0 2.8 1.3 2.8 2.9v20.8c0 1.6-1.2 2.8-2.9 2.8h-0.1c-1.4 0-2.2-0.6-3-1.6l-11.5-15.1v14c0 1.5-1.3 2.8-2.9 2.8-1.5 0-2.8-1.3-2.8-2.8z"/>
		<path id="&lt;Compound Path&gt;" class="s0" d="m316.8 128.3v-0.1c0-7.4 5.8-13.5 13.7-13.5 4 0 6.6 0.9 9 2.5 0.5 0.5 1.2 1.2 1.2 2.4 0 1.5-1.3 2.8-2.9 2.8-0.8 0-1.3-0.3-1.7-0.6-1.6-1.1-3.3-1.8-5.7-1.8-4.2 0-7.5 3.7-7.5 8.1v0.1c0 4.8 3.2 8.3 7.9 8.3 2.1 0 3.9-0.5 5.4-1.6v-3.7h-3.9c-1.4 0-2.5-1.1-2.5-2.5 0-1.3 1.1-2.5 2.5-2.5h6.6c1.6 0 2.9 1.3 2.9 2.9v6.4q0 2.4-2.1 3.6c-2.1 1.3-5.2 2.6-9.1 2.6-8.2 0-13.8-5.7-13.8-13.4z"/>
	</g>
	<g id="Capa 1">
		<g id="&lt;Group&gt;">
			<g id="&lt;Group&gt;">
				<path id="&lt;Compound Path&gt;" fill-rule="evenodd" class="s1" d="m27.9 138.4l9.4-21.3c0.7-1.5 1.9-2.4 3.5-2.4h0.4c1.6 0 2.7 0.9 3.4 2.4l9.4 21.3q0.3 0.6 0.3 1.2c0 1.6-1.2 2.8-2.8 2.8-1.4 0-2.3-0.8-2.8-2l-1.9-4.3h-11.9l-1.9 4.5c-0.5 1.1-1.5 1.8-2.7 1.8-1.6 0-2.8-1.2-2.8-2.7 0-0.5 0.2-0.9 0.4-1.3zm16.7-7.5l-3.7-9-3.8 9z"/>
				<path id="&lt;Compound Path&gt;" class="s1" d="m67 117.9c0-1.7 1.4-3 3-3 1.7 0 3 1.3 3 3v21.6c0 1.6-1.3 2.9-3 2.9-1.6 0-3-1.3-3-2.9z"/>
			</g>
			<g id="&lt;Group&gt;">
				<path id="&lt;Compound Path&gt;" class="s1" d="m6.5 16.9c0-5.4 4.2-9.6 9.5-9.6h2.2c4.1 0 6.9 2.1 8.7 5l23.1 37.6 23.2-37.7c2-3.3 4.7-4.9 8.6-4.9h2.1c5.3 0 9.5 4.2 9.5 9.6v69.1c0 5.3-4.2 9.5-9.5 9.5-5.2 0-9.5-4.3-9.5-9.5v-43.4l-16.7 25.8c-2 3-4.5 4.9-8 4.9-3.5 0-6-1.9-7.9-4.9l-16.6-25.4v43.2c0 5.2-4.2 9.3-9.4 9.3-5.2 0-9.3-4.1-9.3-9.3z"/>
				<path id="&lt;Compound Path&gt;" class="s1" d="m113.4 57.5v-40.9c0-5.3 4.2-9.5 9.5-9.5 5.4 0 9.6 4.2 9.6 9.5v40.4c0 14.2 7.1 21.5 18.7 21.5 11.7 0 18.8-7.1 18.8-20.9v-41c0-5.3 4.2-9.5 9.6-9.5 5.3 0 9.5 4.2 9.5 9.5v40.3c0 26.3-14.7 39.2-38.1 39.2-23.4 0-37.6-13-37.6-38.6z"/>
				<path id="&lt;Compound Path&gt;" class="s1" d="m206.5 86.3v-0.3c0-3.4 1.2-6.4 3.4-9l45.1-52.4h-38.6c-4.6 0-8.4-3.7-8.4-8.3 0-4.6 3.8-8.5 8.4-8.5h55.5c4.6 0 8.5 3.9 8.5 8.5v0.3c0 3.4-1.3 6.2-3.5 9l-45.1 52.4h40.1c4.6 0 8.5 3.9 8.5 8.4 0 4.6-3.9 8.4-8.5 8.4h-57c-4.6 0-8.4-3.9-8.4-8.5z"/>
				<path id="&lt;Compound Path&gt;" class="s1" d="m297.9 84.9l0.6-67.8c0-5.4 4.3-9.5 9.6-9.5l48.2 0.4c4.8 0.1 8.6 4 8.5 8.7 0 4.7-3.9 8.4-8.6 8.4l-38.8-0.4-0.1 17.6 33.1 0.3c4.8 0.1 8.6 4 8.5 8.7 0 4.7-3.9 8.4-8.6 8.4l-33.2-0.3-0.1 18.2 39.3 0.4c4.8 0 8.6 3.9 8.5 8.6 0 4.7-3.9 8.4-8.6 8.4l-48.8-0.4c-5.4-0.1-9.6-4.4-9.5-9.7z"/>
			</g>
			<g id="&lt;Group&gt;">
				<g id="&lt;Group&gt;">
					<path id="&lt;Compound Path&gt;" class="s1" d="m-292-19.5c0-14.8 11.7-26.5 26.5-26.5h5.8c11.3 0 19.2 5.8 24 13.7l64 104.1 64.2-104.4c1.8-2.8 5-7 10.3-10.3 10.7-6.7 21.9-5 25-4.4 4 1.7 9.8 5.1 12.6 11.3 4.6 10.3-1.7 22.6-5.7 28.7-44.4 67.4-76.7 116.1-83.5 127.8 0 0-6.7 11.6-15.7 14.6-3.9 1.3-7.9 1.3-7.9 1.3-9.7 0-16.5-5.1-22-13.4l-45.7-70.4v119.6c0 14.4-11.7 25.7-26.1 25.7-14.5 0-25.8-11.3-25.8-25.7z"/>
				</g>
				<path id="&lt;Path&gt;" fill-rule="evenodd" class="s2" d="m-83.4 197.9c-14.05 0-25.4-11.35-25.4-25.4 0-14.05 11.35-25.4 25.4-25.4 14.05 0 25.4 11.35 25.4 25.4 0 14.05-11.35 25.4-25.4 25.4z"/>
			</g>
		</g>
	</g>
</svg>